<?xml version="1.0" encoding="UTF-8"?>
<svg id="Capa_2" data-name="Capa 2" xmlns="http://www.w3.org/2000/svg" viewBox="0 0 1798.27 824.82">
  <defs>
    <style>
      .cls-1 {
        fill: #d6ccc3;
        stroke-width: 0px;
      }
    </style>
  </defs>
  <g id="Capa_1-2" data-name="Capa 1">
    <g>
      <path class="cls-1" d="M1395.21,565.4c1.34-1.79,2.01-4.13,2.01-7.02,0-2.5-.6-4.65-1.78-6.46-1.19-1.8-2.98-3.19-5.37-4.16-2.4-.97-5.33-1.45-8.82-1.45h-17.65v42.52h5.43v-17.71h13.31c2.29,0,4.09.3,5.41.91,1.3.6,2.25,1.44,2.81,2.52.56,1.07.83,2.41.83,4v10.28h5.57v-10.28c0-1.85-.26-3.47-.78-4.85-.51-1.38-1.35-2.5-2.52-3.36-1.16-.87-2.71-1.4-4.65-1.62v-.14c2.8-.35,4.87-1.4,6.2-3.19ZM1387.33,566.11c-1.6.67-3.64,1.01-6.14,1.01h-12.15v-15.91h12.22c2.37,0,4.34.3,5.92.91,1.57.6,2.76,1.48,3.55,2.62.8,1.13,1.19,2.51,1.19,4.1,0,1.73-.36,3.19-1.09,4.42s-1.9,2.17-3.49,2.85Z"/>
      <path class="cls-1" d="M1381.17,522.88c-24.41,0-44.26,19.86-44.26,44.26s19.86,44.26,44.26,44.26,44.26-19.86,44.26-44.26-19.86-44.26-44.26-44.26ZM1381.17,605.04c-20.9,0-37.9-17-37.9-37.9s17-37.9,37.9-37.9,37.9,17,37.9,37.9-17,37.9-37.9,37.9Z"/>
      <polygon class="cls-1" points="528.14 510.22 425.12 219.28 312.74 219.28 312.74 604.46 378.88 604.46 376.54 274.89 378.3 274.89 495.96 604.46 553.91 604.46 672.15 274.89 673.32 274.89 671.57 604.46 742.4 604.46 742.4 219.28 632.35 219.28 528.14 510.22"/>
      <path class="cls-1" d="M1228.57,555.17h-136.85c15.19-6.08,29.56-15.47,42.55-27.63,15.47-14.64,27.9-32.6,37.02-53.6,9.12-21,13.81-44.76,13.81-70.73,0-38.68-8.56-72.38-25.69-100.84-17.13-28.46-41.16-50.28-71.83-65.75-30.67-15.47-64.65-23.21-102.22-23.21s-71.28,8.01-101.39,24.04c-30.39,16.02-54.15,38.68-71.83,68.52-17.41,29.56-26.25,64.37-26.25,104.15s8.56,75.97,25.97,106.64c17.41,30.39,41.44,53.6,71.83,69.62,28.46,14.92,60.23,22.93,95.04,23.76v.27h319.17v-5.96h.33v-160.39h158.06v-49.17h-158.06v-117.08h187.32v-58.53h-256.97v335.88ZM921.25,534.72c-19.62-11.33-35.09-27.63-46.41-49.45-11.33-21.55-16.85-46.69-16.85-75.15s5.52-52.49,16.85-73.49c11.33-21,26.8-36.74,46.14-48.07,19.62-11.05,41.16-16.58,64.37-16.58s45.58,5.53,65.2,16.58c19.34,11.33,34.81,27.07,46.14,48.07,11.33,21,17.13,45.31,17.13,73.49s-5.8,53.87-17.41,75.15c-11.6,21.27-27.07,37.85-46.41,49.18-19.61,11.6-41.16,17.41-64.65,17.41s-44.2-5.8-64.1-17.13Z"/>
      <path class="cls-1" d="M1385.86,0H412.41C185.01,0,0,185.01,0,412.41s185.01,412.41,412.41,412.41h973.45c227.4,0,412.41-185.01,412.41-412.41S1613.27,0,1385.86,0ZM1385.86,770.26H412.41c-197.32,0-357.85-160.53-357.85-357.85S215.09,54.56,412.41,54.56h973.45c197.32,0,357.85,160.53,357.85,357.85s-160.53,357.85-357.85,357.85Z"/>
    </g>
  </g>
</svg>